<?xml version="1.0" standalone="no"?>
<!DOCTYPE svg PUBLIC "-//W3C//DTD SVG 20010904//EN"
 "http://www.w3.org/TR/2001/REC-SVG-20010904/DTD/svg10.dtd">
<svg version="1.0" xmlns="http://www.w3.org/2000/svg"
 width="512.000000pt" height="512.000000pt" viewBox="0 0 512.000000 512.000000"
 preserveAspectRatio="xMidYMid meet">

<g transform="translate(0.000000,512.000000) scale(0.100000,-0.100000)"
fill="#000000" stroke="none">
<path d="M2568 4029 c-31 -18 -22 -57 17 -76 44 -21 48 -53 7 -53 -15 0 -33 5
-40 12 -9 9 -12 9 -12 0 0 -33 78 -42 106 -11 22 24 13 45 -31 69 -16 9 -30
21 -33 28 -6 18 28 27 49 13 11 -6 19 -7 19 -1 0 11 -33 30 -52 30 -7 0 -21
-5 -30 -11z"/>
<path d="M2325 4009 c-15 -24 -43 -149 -33 -149 5 0 12 9 15 19 6 25 63 35 80
14 6 -8 18 -13 27 -11 11 2 6 17 -25 68 -41 68 -52 79 -64 59z m29 -55 c10
-26 7 -34 -14 -34 -11 0 -20 4 -20 9 0 17 12 41 20 41 4 0 11 -7 14 -16z"/>
<path d="M2806 3998 c-23 -76 -23 -158 0 -135 9 8 32 136 26 142 -9 9 -23 5
-26 -7z"/>
<path d="M2100 3944 c-6 -14 -10 -31 -10 -39 0 -7 -7 -16 -16 -19 -10 -4 -18
3 -26 24 -10 30 -22 38 -32 22 -7 -12 39 -134 50 -130 5 2 8 18 6 36 -3 38 2
39 49 8 20 -14 41 -21 48 -17 8 5 0 15 -24 32 -34 23 -36 26 -30 67 7 47 0 55
-15 16z"/>
<path d="M2966 3913 c-10 -32 -21 -64 -23 -70 -3 -7 2 -13 11 -13 9 0 21 11
26 25 14 36 27 31 41 -14 7 -22 18 -42 25 -45 17 -6 17 -2 3 48 -10 37 -9 39
23 67 37 32 25 40 -15 9 -41 -32 -59 -27 -51 15 5 27 3 35 -8 35 -9 0 -22 -23
-32 -57z"/>
<path d="M1847 3853 c-3 -5 10 -37 30 -72 25 -44 38 -60 46 -52 7 7 1 27 -21
68 -30 57 -45 72 -55 56z"/>
<path d="M3225 3800 c-27 -21 -51 -44 -53 -50 -5 -13 15 -13 23 0 10 16 63
-17 67 -42 5 -38 26 -31 32 11 3 23 9 59 12 81 5 34 3 40 -13 39 -10 0 -40
-18 -68 -39z m51 -6 c-3 -9 -6 -22 -6 -30 0 -16 -9 -18 -30 -4 -12 7 -12 12 4
29 23 25 41 28 32 5z"/>
<path d="M1645 3718 c-4 -11 8 -36 35 -72 l42 -56 39 31 c46 37 53 60 7 28
l-31 -23 -21 25 c-12 13 -31 38 -43 54 -18 25 -23 27 -28 13z"/>
<path d="M3456 3694 c-19 -19 -20 -15 0 -65 14 -33 14 -43 4 -49 -19 -12 -36
-3 -50 28 -8 16 -14 22 -17 14 -7 -20 25 -61 53 -68 17 -4 31 -1 42 10 15 15
15 19 -1 61 -14 39 -14 47 -2 51 18 7 34 -3 45 -30 8 -20 9 -20 9 -1 1 25 -8
39 -36 54 -28 14 -29 14 -47 -5z"/>
<path d="M2395 3636 c-246 -39 -445 -145 -621 -329 -151 -159 -236 -318 -281
-527 -28 -132 -23 -354 10 -481 48 -184 115 -314 228 -447 170 -200 404 -331
664 -372 71 -12 375 -10 375 1 0 4 17 10 38 14 46 9 188 57 231 79 17 9 37 14
43 10 7 -5 8 -3 3 6 -6 10 -4 12 11 6 10 -4 15 -4 11 0 -10 11 31 36 46 28 6
-4 9 -4 5 1 -4 4 22 30 58 57 115 87 226 212 291 325 16 29 33 50 38 45 4 -4
5 -2 2 4 -7 12 26 98 34 89 3 -2 5 4 6 13 0 9 13 62 28 117 21 78 28 134 34
255 4 94 3 158 -2 161 -5 4 -7 23 -3 44 6 28 4 35 -5 29 -8 -5 -10 0 -7 19 3
15 1 28 -4 29 -5 2 -10 20 -11 40 -1 20 -5 34 -9 31 -5 -2 -8 2 -8 9 -1 32
-73 186 -123 261 -242 363 -659 549 -1082 483z m355 -429 c0 -1 -9 -20 -20
-42 -11 -22 -20 -56 -20 -77 l0 -38 -215 0 -215 0 0 29 c0 48 21 92 54 112 28
17 52 19 224 19 105 0 192 -1 192 -3z m142 -26 l33 -29 3 -206 3 -206 -60 0
-61 0 0 155 0 155 -45 0 c-45 0 -45 0 -45 35 0 107 99 161 172 96z m-104 -149
c10 -7 12 -109 10 -478 l-3 -469 -297 -3 -298 -2 0 473 c0 261 3 477 7 480 9
10 565 8 581 -1z m-103 -1047 l0 -80 -184 -3 c-141 -2 -186 1 -193 10 -9 15
-11 119 -2 142 6 14 29 16 193 14 l186 -3 0 -80z"/>
<path d="M2270 2800 l0 -160 225 0 225 0 0 160 0 160 -225 0 -225 0 0 -160z
m440 -5 l0 -145 -212 2 -213 3 -3 143 -3 142 216 0 215 0 0 -145z"/>
<path d="M2303 2557 c-31 -14 -38 -43 -19 -72 20 -30 47 -32 71 -5 35 39 -5
99 -52 77z m51 -29 c8 -14 6 -22 -12 -40 l-23 -23 -19 23 c-15 19 -17 28 -9
44 12 23 47 21 63 -4z"/>
<path d="M2472 2554 c-29 -20 -30 -69 -2 -84 43 -23 92 20 70 60 -17 32 -44
41 -68 24z m56 -33 c5 -32 -23 -54 -49 -40 -21 11 -26 55 -6 63 27 11 52 1 55
-23z"/>
<path d="M2646 2547 c-29 -30 -25 -63 10 -79 53 -24 86 57 37 89 -20 14 -24
13 -47 -10z m48 -3 c23 -9 20 -51 -5 -64 -25 -14 -49 2 -49 35 0 34 17 43 54
29z"/>
<path d="M2284 2385 c-15 -23 -15 -27 0 -50 19 -29 47 -32 70 -9 21 21 20 47
-2 67 -26 24 -49 21 -68 -8z m64 3 c18 -18 14 -46 -7 -58 -11 -5 -22 -10 -25
-10 -8 0 -36 31 -36 40 0 13 30 40 44 40 6 0 17 -5 24 -12z"/>
<path d="M2468 2399 c-28 -16 -23 -67 7 -81 19 -9 29 -8 50 6 30 20 32 39 5
66 -22 22 -37 24 -62 9z m50 -11 c17 -17 15 -43 -4 -59 -31 -26 -70 25 -44 56
15 18 32 19 48 3z"/>
<path d="M2640 2390 c-37 -37 6 -94 54 -72 30 13 35 51 10 76 -21 21 -40 20
-64 -4z m60 -5 c26 -31 -13 -82 -44 -56 -19 16 -21 57 -3 64 22 9 34 7 47 -8z"/>
<path d="M2290 2240 c-23 -23 -24 -33 -10 -61 12 -22 59 -26 78 -7 19 19 14
55 -10 72 -29 20 -34 20 -58 -4z m54 -6 c27 -27 12 -64 -26 -64 -33 0 -43 53
-14 72 16 11 23 10 40 -8z"/>
<path d="M2467 2242 c-32 -35 -15 -82 28 -82 23 0 55 28 55 48 0 16 -37 52
-53 52 -8 0 -21 -8 -30 -18z m51 -4 c19 -19 14 -56 -8 -63 -41 -13 -69 43 -32
64 22 13 26 13 40 -1z"/>
<path d="M2646 2247 c-22 -16 -25 -65 -5 -78 20 -12 53 -11 67 3 18 18 15 53
-6 71 -22 20 -33 21 -56 4z m45 -7 c36 -20 13 -76 -28 -68 -22 4 -29 43 -13
64 15 17 16 17 41 4z"/>
<path d="M1468 3561 l-33 -30 50 -50 c27 -28 55 -51 62 -51 17 0 16 10 -4 32
-15 17 -15 20 5 41 37 40 23 87 -25 87 -12 0 -37 -13 -55 -29z m70 -29 c4 -30
-23 -39 -48 -17 -16 14 -17 21 -8 32 17 21 52 12 56 -15z"/>
<path d="M3612 3495 c-29 -26 -52 -51 -52 -56 0 -19 27 -6 75 36 36 32 47 47
39 55 -8 8 -25 -2 -62 -35z"/>
<path d="M3713 3354 c-52 -34 -70 -61 -35 -51 45 13 47 12 46 -13 0 -14 -3
-34 -5 -44 -6 -29 19 -31 27 -2 5 21 12 26 35 26 44 0 58 37 32 82 -10 18 -26
34 -34 35 -7 1 -38 -14 -66 -33z m85 -27 c3 -23 0 -27 -23 -27 -33 0 -44 26
-19 45 26 19 38 14 42 -18z"/>
<path d="M1305 3351 c-7 -12 71 -131 85 -131 13 0 13 17 0 25 -17 10 21 64 47
67 34 4 29 22 -9 30 -78 16 -117 18 -123 9z m76 -31 c12 0 11 -11 -1 -30 -9
-13 -12 -12 -25 4 -19 26 -19 40 1 32 9 -3 20 -6 25 -6z"/>
<path d="M1124 2576 c-10 -26 4 -48 28 -44 17 2 23 10 23 28 0 18 -6 26 -23
28 -13 2 -25 -3 -28 -12z"/>
<path d="M3944 2576 c-10 -26 4 -48 28 -44 17 2 23 10 23 28 0 18 -6 26 -23
28 -13 2 -25 -3 -28 -12z"/>
</g>
</svg>
